#N canvas 349 134 1251 677 10;
#X obj 313 544 synthe;
#X obj 448 550 0.5;
#X obj 448 580 1 0;
#X obj 448 614 1 1;
#X text 476 549 ShapeWidth;
#X text 477 578 Autonorm;
#X text 476 612 Bypass;
#X obj 312 583 dac~;
#X obj 118 459 readsf~;
#X msg 72 423 stop;
#X obj 71 388 bng 15 250 50 0 empty empty empty 17 7 0 10 -262144 -1
-1;
#X msg 121 419 open piano.wav \, 1;
#X obj 42 57 bng 15 250 50 0 empty empty empty 17 7 0 10 -262144 -1
-1;
#X text 65 53 Bang Global;
#X obj 166 310 readsf~;
#X msg 120 274 stop;
#X obj 119 239 bng 15 250 50 0 empty empty empty 17 7 0 10 -262144
-1 -1;
#X obj 342 400 readsf~;
#X msg 296 364 stop;
#X obj 295 329 bng 15 250 50 0 empty empty empty 17 7 0 10 -262144
-1 -1;
#X obj 404 287 readsf~;
#X msg 358 251 stop;
#X obj 357 216 bng 15 250 50 0 empty empty empty 17 7 0 10 -262144
-1 -1;
#X obj 577 361 readsf~;
#X msg 531 325 stop;
#X obj 530 290 bng 15 250 50 0 empty empty empty 17 7 0 10 -262144
-1 -1;
#X obj 766 357 readsf~;
#X msg 720 321 stop;
#X obj 719 286 bng 15 250 50 0 empty empty empty 17 7 0 10 -262144
-1 -1;
#X obj 283 134 moses 3;
#X obj 256 179 moses 2;
#X obj 415 155 moses 4;
#X obj 568 186 moses 5;
#X text 156 238 Violon Solo (Track 1);
#X text 333 328 Violon Orchestra (Track 2);
#X text 395 214 Drums Solo (Track 3);
#X text 566 286 Guitar Solo (Track 4);
#X obj 419 476 +~;
#X text 110 387 Piano Solo;
#X text 807 422 Choose your track by putting is number and lauch "Bang
Global";
#X msg 774 424 1;
#X obj 118 582 tabwrite~ piano_solo;
#N canvas 0 50 450 300 (subpatch) 0;
#X array piano_solo 50 float 2;
#X coords 0 1 50 -1 200 140 1;
#X restore -96 478 graph;
#X obj 140 555 metro 50;
#N canvas 0 50 450 300 (subpatch) 0;
#X array track 50 float 2;
#X coords 0 1 49 -1 200 140 1;
#X restore 620 464 graph;
#X obj 516 485 metro 50;
#X obj 507 512 tabwrite~ track;
#X obj 516 458 loadbang;
#X obj 141 522 loadbang;
#X text 755 284 Violon Chorus + Maracas (Track 5);
#X msg 407 247 open piano.wav \, 1;
#X msg 580 321 open piano.wav \, 1;
#X msg 769 317 open piano.wav \, 1;
#X msg 345 360 open piano.wav \, 1;
#X msg 169 270 open bassBeatsViolon.wav \, 1;
#X connect 0 0 7 0;
#X connect 1 0 0 2;
#X connect 2 0 0 3;
#X connect 3 0 0 3;
#X connect 8 0 0 0;
#X connect 8 0 41 0;
#X connect 8 1 10 0;
#X connect 9 0 8 0;
#X connect 10 0 11 0;
#X connect 11 0 8 0;
#X connect 12 0 10 0;
#X connect 12 0 15 0;
#X connect 12 0 21 0;
#X connect 12 0 18 0;
#X connect 12 0 24 0;
#X connect 12 0 27 0;
#X connect 12 0 9 0;
#X connect 14 0 0 1;
#X connect 14 1 16 0;
#X connect 15 0 14 0;
#X connect 15 0 40 0;
#X connect 16 0 54 0;
#X connect 17 0 37 0;
#X connect 17 1 19 0;
#X connect 18 0 17 0;
#X connect 18 0 40 0;
#X connect 19 0 53 0;
#X connect 20 1 22 0;
#X connect 21 0 20 0;
#X connect 21 0 40 0;
#X connect 22 0 50 0;
#X connect 23 0 37 0;
#X connect 23 1 25 0;
#X connect 24 0 23 0;
#X connect 24 0 40 0;
#X connect 25 0 51 0;
#X connect 26 0 37 0;
#X connect 26 1 28 0;
#X connect 27 0 26 0;
#X connect 27 0 40 0;
#X connect 28 0 52 0;
#X connect 29 0 30 0;
#X connect 29 1 31 0;
#X connect 30 0 16 0;
#X connect 30 1 19 0;
#X connect 31 0 22 0;
#X connect 31 1 32 0;
#X connect 32 0 25 0;
#X connect 32 1 28 0;
#X connect 37 0 46 0;
#X connect 40 0 29 0;
#X connect 43 0 41 0;
#X connect 45 0 46 0;
#X connect 47 0 45 0;
#X connect 48 0 43 0;
#X connect 50 0 20 0;
#X connect 51 0 23 0;
#X connect 52 0 26 0;
#X connect 53 0 17 0;
#X connect 54 0 14 0;
