#N canvas 293 116 1210 664 10;
#X obj 602 582 synthe;
#X obj 671 469 0.5;
#X obj 671 499 1 0;
#X obj 671 533 1 1;
#X text 702 460 ShapeWidth;
#X text 700 497 Autonorm;
#X text 703 531 Bypass;
#X obj 601 621 dac~;
#X obj -17 465 readsf~;
#X msg -63 429 stop;
#X obj -64 394 bng 15 250 50 0 empty empty empty 17 7 0 10 -262144
-1 -1;
#X msg -14 425 open piano.wav \, 1;
#X obj 267 27 bng 15 250 50 0 empty empty empty 17 7 0 10 -262144 -1
-1;
#X text 291 23 Bang Global;
#X obj 166 310 readsf~;
#X msg 120 274 stop;
#X obj 119 239 bng 15 250 50 0 empty empty empty 17 7 0 10 -262144
-1 -1;
#X msg 169 270 open violon.wav \, 1;
#X obj 342 400 readsf~;
#X msg 296 364 stop;
#X obj 295 329 bng 15 250 50 0 empty empty empty 17 7 0 10 -262144
-1 -1;
#X msg 345 360 open violon.wav \, 1;
#X obj 404 287 readsf~;
#X msg 358 251 stop;
#X obj 357 216 bng 15 250 50 0 empty empty empty 17 7 0 10 -262144
-1 -1;
#X msg 407 247 open violon.wav \, 1;
#X obj 577 361 readsf~;
#X msg 531 325 stop;
#X obj 530 290 bng 15 250 50 0 empty empty empty 17 7 0 10 -262144
-1 -1;
#X msg 580 321 open violon.wav \, 1;
#X obj 766 357 readsf~;
#X msg 720 321 stop;
#X obj 719 286 bng 15 250 50 0 empty empty empty 17 7 0 10 -262144
-1 -1;
#X msg 769 317 open violon.wav \, 1;
#X obj 283 134 moses 3;
#X obj 256 179 moses 2;
#X obj 415 155 moses 4;
#X obj 568 186 moses 5;
#X text 156 238 Violon Solo (Track 1);
#X text 333 328 Violon Orchestra (Track 2);
#X text 395 214 Drums Solo (Track 3);
#X text 566 286 Guitar Solo (Track 4);
#X text 755 284 Violon Chorus + Maracas (Track 5);
#X obj 419 476 +~;
#X text 353 73 Choose your track by putting is number;
#X msg 320 75 1;
#X text -25 393 Piano Solo;
#X connect 0 0 7 0;
#X connect 1 0 0 2;
#X connect 2 0 0 3;
#X connect 3 0 0 3;
#X connect 8 0 0 0;
#X connect 8 1 10 0;
#X connect 9 0 8 0;
#X connect 10 0 11 0;
#X connect 11 0 8 0;
#X connect 12 0 10 0;
#X connect 12 0 45 0;
#X connect 14 0 43 0;
#X connect 14 1 16 0;
#X connect 15 0 14 0;
#X connect 16 0 17 0;
#X connect 17 0 14 0;
#X connect 18 0 43 0;
#X connect 18 1 20 0;
#X connect 19 0 18 0;
#X connect 20 0 21 0;
#X connect 21 0 18 0;
#X connect 22 1 24 0;
#X connect 23 0 22 0;
#X connect 24 0 25 0;
#X connect 25 0 22 0;
#X connect 26 0 43 0;
#X connect 26 1 28 0;
#X connect 27 0 26 0;
#X connect 28 0 29 0;
#X connect 29 0 26 0;
#X connect 30 0 43 0;
#X connect 30 1 32 0;
#X connect 31 0 30 0;
#X connect 32 0 33 0;
#X connect 33 0 30 0;
#X connect 34 0 35 0;
#X connect 34 1 36 0;
#X connect 35 0 16 0;
#X connect 35 1 20 0;
#X connect 36 0 24 0;
#X connect 36 1 37 0;
#X connect 37 0 28 0;
#X connect 37 1 32 0;
#X connect 43 0 0 1;
#X connect 45 0 34 0;
